<svg width="29" height="9" viewBox="0 0 29 9" fill="none" xmlns="http://www.w3.org/2000/svg">
<path d="M28.9252 4.20024C28.9252 6.49327 27.0664 8.35213 24.7733 8.35213C22.4803 8.35213 20.6215 6.49327 20.6215 4.20024C20.6215 1.90722 22.4803 0.0483533 24.7733 0.0483533C27.0664 0.0483533 28.9252 1.90722 28.9252 4.20024Z" fill="#BE8BFF"/>
<path d="M18.6219 4.24187C18.6219 6.53489 16.763 8.39376 14.47 8.39376C12.177 8.39376 10.3181 6.53489 10.3181 4.24187C10.3181 1.94884 12.177 0.0899793 14.47 0.0899793C16.763 0.0899793 18.6219 1.94884 18.6219 4.24187Z" fill="#BE8BFF"/>
<path d="M8.31769 4.20012C8.31769 6.49314 6.45883 8.35201 4.1658 8.35201C1.87278 8.35201 0.013916 6.49314 0.013916 4.20012C0.013916 1.90709 1.87278 0.0482313 4.1658 0.0482313C6.45883 0.0482313 8.31769 1.90709 8.31769 4.20012Z" fill="#BE8BFF"/>
</svg>
