<svg width="81" height="70" viewBox="0 0 81 70" fill="none" xmlns="http://www.w3.org/2000/svg">
<rect x="10.5" y="38.5" width="67" height="30" fill="#FFEE58" stroke="#F09B36" stroke-width="3" stroke-miterlimit="1"/>
<mask id="path-2-inside-1_135_228" fill="white">
<path d="M79 37.5C79 27.5544 75.3125 18.0161 68.7487 10.9835C62.185 3.95088 53.2826 7.50873e-07 44 0C34.7174 -7.50873e-07 25.815 3.95088 19.2513 10.9835C12.6875 18.0161 9 27.5544 9 37.5L44 37.5H79Z"/>
</mask>
<path d="M79 37.5C79 27.5544 75.3125 18.0161 68.7487 10.9835C62.185 3.95088 53.2826 7.50873e-07 44 0C34.7174 -7.50873e-07 25.815 3.95088 19.2513 10.9835C12.6875 18.0161 9 27.5544 9 37.5L44 37.5H79Z" fill="#FFEE58" stroke="#F09B36" stroke-width="6" mask="url(#path-2-inside-1_135_228)"/>
<g filter="url(#filter0_d_135_228)">
<path d="M12.7919 53.0766L12.7825 45.2026L15.1619 45.1997L16.597 50.5691L18.0032 45.1963L20.388 45.1935L20.3974 53.0675L18.9203 53.0693L18.9129 46.871L17.3573 53.0711L15.8266 53.073L14.2616 46.8766L14.269 53.0748L12.7919 53.0766ZM23.2286 49.1003L21.8587 48.8548C22.012 48.3032 22.2765 47.8947 22.6521 47.6293C23.0278 47.3638 23.5862 47.2307 24.3274 47.2298C25.0006 47.229 25.502 47.309 25.8316 47.4697C26.1612 47.6269 26.3924 47.8289 26.5252 48.0758C26.6616 48.3192 26.7302 48.7685 26.7309 49.4237L26.7169 51.1855C26.7175 51.6868 26.7412 52.0573 26.7881 52.2972C26.8385 52.5335 26.9301 52.7876 27.0629 53.0596L25.5697 53.0613C25.5302 52.9611 25.4817 52.8126 25.4242 52.6157C25.399 52.5262 25.381 52.4672 25.3703 52.4385C25.1128 52.6895 24.8373 52.8778 24.5438 53.0035C24.2503 53.1292 23.9371 53.1922 23.6041 53.1926C23.0168 53.1933 22.5529 53.0345 22.2124 52.7162C21.8754 52.3979 21.7067 51.9953 21.7061 51.5083C21.7057 51.1861 21.7823 50.8995 21.936 50.6487C22.0897 50.3943 22.3043 50.2007 22.5798 50.0678C22.859 49.9314 23.2599 49.8128 23.7825 49.7119C24.4878 49.5786 24.9764 49.4545 25.2484 49.3396L25.2482 49.1892C25.2479 48.8991 25.176 48.6933 25.0327 48.5717C24.8893 48.4466 24.6189 48.3843 24.2214 48.3847C23.9528 48.385 23.7434 48.439 23.5932 48.5466C23.4429 48.6506 23.3214 48.8352 23.2286 49.1003ZM25.2496 50.3225C25.0563 50.3871 24.7502 50.4645 24.3314 50.5545C23.9126 50.6445 23.6387 50.7326 23.5099 50.8187C23.3132 50.9586 23.2149 51.1359 23.2152 51.3508C23.2154 51.562 23.2944 51.7446 23.4521 51.8983C23.6099 52.0521 23.8105 52.1289 24.054 52.1286C24.3261 52.1283 24.5856 52.0384 24.8325 51.8591C25.0149 51.7228 25.1347 51.5562 25.1917 51.3592C25.231 51.2302 25.2504 50.9849 25.2499 50.6232L25.2496 50.3225ZM27.5449 47.3549L32.7065 47.3487L32.7079 48.568L30.8818 48.5701L30.8871 53.055L29.3778 53.0568L29.3725 48.5719L27.5463 48.5741L27.5449 47.3549ZM36.9221 51.2324L38.4263 51.483C38.2336 52.0347 37.9279 52.4558 37.5093 52.7463C37.0943 53.0333 36.5735 53.1771 35.9468 53.1779C34.955 53.1791 34.2205 52.8559 33.7435 52.2083C33.3669 51.6896 33.1782 51.0345 33.1772 50.2432C33.1761 49.2979 33.4223 48.5582 33.9158 48.024C34.4093 47.4863 35.0338 47.217 35.7893 47.2161C36.638 47.2151 37.3079 47.4954 37.7991 48.057C38.2904 48.615 38.5259 49.4723 38.5058 50.6289L34.7246 50.6334C34.7358 51.081 34.858 51.43 35.0911 51.6804C35.3241 51.9272 35.6143 52.0503 35.9616 52.0499C36.1979 52.0496 36.3966 51.985 36.5576 51.8559C36.7186 51.7268 36.8401 51.5189 36.9221 51.2324ZM37.0062 49.7069C36.9949 49.27 36.8817 48.939 36.6666 48.7136C36.4515 48.4847 36.19 48.3705 35.882 48.3708C35.5526 48.3712 35.2806 48.4915 35.0661 48.7317C34.8515 48.9718 34.7463 49.2978 34.7503 49.7096L37.0062 49.7069ZM39.6298 47.3405L41.499 47.3382L42.9217 51.3112L44.3456 47.3349L46.2094 47.3326L46.2162 53.0367L44.9325 53.0383L44.928 49.2839L43.5414 53.0399L42.2524 53.0415L40.9212 49.2886L40.9257 53.043L39.6366 53.0446L39.6298 47.3405ZM48.709 49.0699L47.3391 48.8244C47.4924 48.2728 47.7569 47.8643 48.1326 47.5989C48.5082 47.3335 49.0667 47.2003 49.8079 47.1994C50.4811 47.1986 50.9825 47.2786 51.3121 47.4393C51.6417 47.5965 51.8729 47.7985 52.0057 48.0454C52.142 48.2888 52.2106 48.7381 52.2114 49.3933L52.1974 51.1551C52.198 51.6564 52.2217 52.027 52.2685 52.2668C52.3189 52.5031 52.4105 52.7572 52.5434 53.0292L51.0502 53.031C51.0107 52.9307 50.9622 52.7822 50.9046 52.5853C50.8795 52.4958 50.8615 52.4368 50.8507 52.4082C50.5932 52.6591 50.3177 52.8474 50.0242 52.9731C49.7308 53.0988 49.4175 53.1618 49.0845 53.1622C48.4973 53.1629 48.0334 53.0041 47.6928 52.6858C47.3559 52.3676 47.1871 51.9649 47.1865 51.478C47.1861 51.1557 47.2628 50.8691 47.4165 50.6183C47.5701 50.3639 47.7847 50.1703 48.0603 50.0375C48.3394 49.9011 48.7403 49.7824 49.263 49.6815C49.9682 49.5482 50.4569 49.4241 50.7289 49.3092L50.7287 49.1588C50.7283 48.8687 50.6565 48.6629 50.5131 48.5414C50.3697 48.4162 50.0993 48.3539 49.7018 48.3543C49.4333 48.3547 49.2239 48.4086 49.0736 48.5162C48.9234 48.6202 48.8018 48.8048 48.709 49.0699ZM50.73 50.2921C50.5368 50.3568 50.2307 50.4341 49.8119 50.5241C49.393 50.6142 49.1192 50.7022 48.9904 50.7883C48.7936 50.9282 48.6954 51.1055 48.6956 51.3204C48.6959 51.5317 48.7749 51.7142 48.9326 51.868C49.0903 52.0217 49.2909 52.0985 49.5344 52.0982C49.8066 52.0979 50.0661 52.008 50.3129 51.8287C50.4954 51.6924 50.6151 51.5258 50.6722 51.3288C50.7114 51.1998 50.7308 50.9545 50.7304 50.5929L50.73 50.2921ZM53.0253 47.3245L58.1869 47.3183L58.1884 48.5376L56.3622 48.5398L56.3676 53.0246L54.8583 53.0264L54.853 48.5416L53.0268 48.5437L53.0253 47.3245ZM59.0571 47.3173L60.5073 47.3156L60.5115 50.8981L62.8276 47.3128L64.31 47.311L64.3168 53.0151L62.8666 53.0169L62.8622 49.3699L60.5141 53.0197L59.0639 53.0214L59.0571 47.3173ZM65.8032 47.3093L67.3071 47.3075L67.3098 49.6385C67.5605 49.6096 67.7376 49.5324 67.8413 49.4069C67.945 49.2815 68.07 49.0074 68.2163 48.5847C68.409 48.0223 68.6198 47.6622 68.8488 47.5044C69.0778 47.3465 69.3785 47.2674 69.7509 47.267C69.8654 47.2668 70.0642 47.2755 70.3471 47.2931L70.3536 48.2921C69.9562 48.2926 69.702 48.3305 69.5911 48.4058C69.4802 48.4847 69.3605 48.7194 69.2321 49.1099C69.0572 49.6364 68.8052 49.9608 68.4759 50.0829C68.9523 50.2149 69.3556 50.628 69.6859 51.3222C69.7038 51.358 69.7236 51.3956 69.7451 51.4349L70.5902 53.0077L68.9682 53.0096L68.2142 51.3616C68.0599 51.0287 67.9253 50.8159 67.8106 50.7229C67.6995 50.6263 67.533 50.5782 67.311 50.5785L67.3139 53.0116L65.81 53.0134L65.8032 47.3093ZM72.503 49.0415L71.1331 48.7961C71.2864 48.2445 71.5509 47.8359 71.9265 47.5705C72.3022 47.3051 72.8606 47.1719 73.6018 47.1711C74.275 47.1703 74.7764 47.2502 75.106 47.411C75.4356 47.5681 75.6668 47.7702 75.7996 48.0171C75.936 48.2604 76.0045 48.7097 76.0053 49.365L75.9913 51.1267C75.9919 51.628 76.0156 51.9986 76.0625 52.2384C76.1129 52.4747 76.2045 52.7288 76.3373 53.0008L74.8441 53.0026C74.8046 52.9024 74.7561 52.7538 74.6986 52.557C74.6734 52.4675 74.6554 52.4084 74.6447 52.3798C74.3871 52.6307 74.1116 52.8191 73.8182 52.9447C73.5247 53.0704 73.2115 53.1334 72.8785 53.1338C72.2912 53.1345 71.8273 52.9758 71.4868 52.6575C71.1498 52.3392 70.981 51.9366 70.9805 51.4496C70.9801 51.1273 71.0567 50.8408 71.2104 50.5899C71.3641 50.3355 71.5787 50.1419 71.8542 50.0091C72.1334 49.8727 72.5343 49.754 73.0569 49.6532C73.7622 49.5198 74.2508 49.3957 74.5228 49.2808L74.5226 49.1304C74.5223 48.8404 74.4504 48.6346 74.307 48.513C74.1637 48.3878 73.8932 48.3255 73.4958 48.326C73.2272 48.3263 73.0178 48.3803 72.8675 48.4879C72.7173 48.5919 72.5958 48.7764 72.503 49.0415ZM74.524 50.2637C74.3307 50.3284 74.0246 50.4057 73.6058 50.4958C73.1869 50.5858 72.9131 50.6738 72.7843 50.7599C72.5875 50.8998 72.4893 51.0772 72.4895 51.292C72.4898 51.5033 72.5688 51.6858 72.7265 51.8396C72.8843 51.9934 73.0849 52.0701 73.3284 52.0698C73.6005 52.0695 73.86 51.9797 74.1069 51.8003C74.2893 51.6641 74.4091 51.4974 74.4661 51.3004C74.5054 51.1715 74.5248 50.9261 74.5243 50.5645L74.524 50.2637Z" fill="#3F1D9E"/>
</g>
<path d="M12 35C12 34.4477 12.4477 34 13 34H75C75.5523 34 76 34.4477 76 35V40H12V35Z" fill="#FFEE58"/>
<g filter="url(#filter1_d_135_228)">
<path d="M27.3984 42V7.64062H37.7812L44.0156 31.0781L50.1797 7.64062H60.5859V42H54.1406V14.9531L47.3203 42H40.6406L33.8438 14.9531V42H27.3984Z" fill="#F5AF26"/>
</g>
<defs>
<filter id="filter0_d_135_228" x="8.78259" y="45.1268" width="71.5548" height="16.0787" filterUnits="userSpaceOnUse" color-interpolation-filters="sRGB">
<feFlood flood-opacity="0" result="BackgroundImageFix"/>
<feColorMatrix in="SourceAlpha" type="matrix" values="0 0 0 0 0 0 0 0 0 0 0 0 0 0 0 0 0 0 127 0" result="hardAlpha"/>
<feOffset dy="4"/>
<feGaussianBlur stdDeviation="2"/>
<feComposite in2="hardAlpha" operator="out"/>
<feColorMatrix type="matrix" values="0 0 0 0 0 0 0 0 0 0 0 0 0 0 0 0 0 0 0.45 0"/>
<feBlend mode="normal" in2="BackgroundImageFix" result="effect1_dropShadow_135_228"/>
<feBlend mode="normal" in="SourceGraphic" in2="effect1_dropShadow_135_228" result="shape"/>
</filter>
<filter id="filter1_d_135_228" x="25.3984" y="7.64062" width="37.1875" height="38.3594" filterUnits="userSpaceOnUse" color-interpolation-filters="sRGB">
<feFlood flood-opacity="0" result="BackgroundImageFix"/>
<feColorMatrix in="SourceAlpha" type="matrix" values="0 0 0 0 0 0 0 0 0 0 0 0 0 0 0 0 0 0 127 0" result="hardAlpha"/>
<feOffset dy="2"/>
<feGaussianBlur stdDeviation="1"/>
<feComposite in2="hardAlpha" operator="out"/>
<feColorMatrix type="matrix" values="0 0 0 0 0 0 0 0 0 0 0 0 0 0 0 0 0 0 0.4 0"/>
<feBlend mode="normal" in2="BackgroundImageFix" result="effect1_dropShadow_135_228"/>
<feBlend mode="normal" in="SourceGraphic" in2="effect1_dropShadow_135_228" result="shape"/>
</filter>
</defs>
</svg>
